<?xml version="1.0" encoding="iso-8859-1"?>
<!-- Generator: Adobe Illustrator 19.0.0, SVG Export Plug-In . SVG Version: 6.00 Build 0)  -->
<svg version="1.1" id="Capa_1" xmlns="http://www.w3.org/2000/svg" xmlns:xlink="http://www.w3.org/1999/xlink" x="0px" y="0px"
	 viewBox="0 0 512 512" style="enable-background:new 0 0 512 512;" xml:space="preserve">
<g>
	<g>
		<path d="M256,144.859c-128.075,0-232.273,97.193-232.273,216.663H61.19c0-98.81,87.39-179.2,194.81-179.2
			s194.81,80.39,194.81,179.2h37.463C488.273,242.057,384.081,144.859,256,144.859z"/>
	</g>
</g>
<g>
	<g>
		<path d="M493.268,346.537H18.732C8.386,346.537,0,354.922,0,365.268C0,375.614,8.386,384,18.732,384h474.537
			c10.346,0,18.732-8.386,18.732-18.732C512,354.922,503.614,346.537,493.268,346.537z"/>
	</g>
</g>
<g>
	<g>
		<path d="M493.268,427.707H18.732C8.386,427.707,0,436.093,0,446.439s8.386,18.732,18.732,18.732h474.537
			c10.346,0,18.732-8.386,18.732-18.732S503.614,427.707,493.268,427.707z"/>
	</g>
</g>
<g>
	<g>
		<path d="M259.122,46.829c-36.152,0-65.561,29.409-65.561,65.561s29.409,65.561,65.561,65.561
			c36.152,0,65.561-29.409,65.561-65.561S295.274,46.829,259.122,46.829z M259.122,140.488c-15.491,0-28.098-12.606-28.098-28.098
			c0-15.491,12.606-28.098,28.098-28.098c15.491,0,28.098,12.606,28.098,28.098S274.613,140.488,259.122,140.488z"/>
	</g>
</g>
<g>
</g>
<g>
</g>
<g>
</g>
<g>
</g>
<g>
</g>
<g>
</g>
<g>
</g>
<g>
</g>
<g>
</g>
<g>
</g>
<g>
</g>
<g>
</g>
<g>
</g>
<g>
</g>
<g>
</g>
</svg>
