<svg xmlns="http://www.w3.org/2000/svg" viewBox="0 0 334.42 298.14"><defs><style>.cls-1{fill:#780f11;}</style></defs><title>logo</title><g id="Layer_2" data-name="Layer 2"><g id="Layer_1-2" data-name="Layer 1"><path class="cls-1" d="M174.79,0,49.21,264.19a68.63,68.63,0,0,1-14,17.3A70.58,70.58,0,0,1,0,298.14H72.09c13.2-1.17,20.4-6.33,23.82-9.4,2.32-2.09,4.88-5,13.39-21.21,4.18-7.95,7.44-14.65,9.68-19.34q17.14-35.15,34.23-70.33,27.07-55.77,53.95-111.63Z"/><path class="cls-1" d="M268.84,256.56a75.45,75.45,0,0,0,65.58,41.58H242.05c1,0,16.24-.05,24.83-13.21C275.6,271.58,269.22,257.37,268.84,256.56Z"/></g></g></svg>