<svg xmlns="http://www.w3.org/2000/svg" viewBox="0 0 319.71 281"><title>shop</title><g id="Layer_2" data-name="Layer 2"><g id="Layer_1-2" data-name="Layer 1"><path d="M103,187.34H272.88a9.37,9.37,0,0,0,9-6.79L319.35,49.41a9.35,9.35,0,0,0-9-11.94H81.41L74.71,7.33A9.36,9.36,0,0,0,65.57,0H9.37a9.37,9.37,0,1,0,0,18.73H58.05c1.19,5.34,32.05,144.2,33.82,152.19A28.09,28.09,0,0,0,103,224.8H272.88a9.37,9.37,0,1,0,0-18.73H103a9.37,9.37,0,0,1,0-18.73ZM297.93,56.2,265.82,168.6H110.55l-25-112.4Z"/><path d="M93.67,252.9a28.1,28.1,0,1,0,28.1-28.1A28.13,28.13,0,0,0,93.67,252.9Zm28.1-9.37a9.37,9.37,0,1,1-9.37,9.37A9.38,9.38,0,0,1,121.77,243.53Z"/><path d="M226.05,252.9a28.1,28.1,0,1,0,28.1-28.1A28.13,28.13,0,0,0,226.05,252.9Zm28.1-9.37a9.37,9.37,0,1,1-9.37,9.37A9.39,9.39,0,0,1,254.15,243.53Z"/></g></g></svg>